# xmcd CD database file
#
# Track frame offsets:
#	150
#	8797
#	31207
#	35442
#	51495
#	68675
#	80107
#	107495
#	128695
#	135697
#	178432
#
# Disc length: 2589 seconds
#
# Revision: 0
# Processed by: cddbd v1.5.1PL0 Copyright (c) Steve Scherf et al.
# Submitted via: CDex 1.51
#
DISCID=950a1b0b
DTITLE=パラダイス・ガラージ - ベッドルーム・ポップシンガー
DYEAR=1996
DGENRE=Rock
TTITLE0=ベッドルームから愛をこめて
TTITLE1=バーガー・ベイビー
TTITLE2=ボールペン(in the U.S.A.)
TTITLE3=初恋のひとは近所に住んでいる
TTITLE4=カーネーションならこんな毎日をどんな風に唄うだろう
TTITLE5=待ちぶせ
TTITLE6=中学生
TTITLE7=中学生(reverse-1987)
TTITLE8=あなただけに僕、愛されたいのです
TTITLE9=二月生まれ
TTITLE10=人間
EXTD=YEAR: 1996
EXTT0=
EXTT1=
EXTT2=
EXTT3=
EXTT4=
EXTT5=
EXTT6=
EXTT7=
EXTT8=
EXTT9=
EXTT10=
PLAYORDER=
